<svg width="80" height="28" viewBox="0 0 80 28" fill="none" xmlns="http://www.w3.org/2000/svg">
<path id="Vector" d="M69.5207 23.3815C67.2462 22.6122 64.7595 22.3168 62.3869 21.9909C61.3489 21.8484 60.2942 20.9815 59.7862 20.0888C59.4769 19.5452 59.1073 18.1675 60.0304 17.9321C62.9667 17.1833 65.9997 17.4567 68.885 18.3658C68.86 18.3322 68.8359 18.298 68.8109 18.2644C68.4919 17.836 68.163 17.415 67.825 17.0014C67.2611 16.3114 66.6658 15.652 66.0606 14.9981C66.0319 14.9673 65.8891 14.8202 65.8324 14.7607C65.747 14.6769 65.6617 14.5929 65.5756 14.5098C65.1902 14.1381 64.797 13.7747 64.3959 13.4202C63.7722 12.8689 63.129 12.3388 62.4691 11.8315C62.3184 11.7156 62.166 11.6011 62.0131 11.4878C61.9397 11.4363 61.7829 11.3249 61.7545 11.3057C61.3098 11.0054 60.8669 10.7039 60.413 10.4172C58.8121 9.40586 57.5297 8.72576 55.9211 8.0441C49.3695 5.26773 42.106 4.82171 35.1854 6.43922C32.3806 7.09461 29.6122 8.15351 27.0577 9.52847C27.5856 10.3127 28.0485 11.1432 28.4268 12.0223C29.2577 13.9532 29.6367 16.358 28.7855 18.3499C27.999 20.1905 26.4205 21.6153 24.4308 21.9941C19.6188 22.9106 15.5344 17.6245 15.9695 13.1817C16.2243 10.5798 17.8812 8.57407 19.9472 7.00361C17.6336 5.70948 14.7798 5.13961 11.9906 5.2653C8.72595 5.4122 5.5478 6.34173 2.98277 8.43376C1.99704 9.23762 -0.332871 7.33792 0.572905 6.36762C5.4544 1.13806 13.3732 0.358808 19.6841 3.33393C20.7792 3.85022 21.8278 4.46998 22.809 5.17973C23.5101 4.79697 24.2091 4.44958 24.8751 4.13366C32.7991 0.376962 42.2277 -0.53633 50.7132 1.70692C58.9019 3.87177 66.6885 8.73714 72.1148 15.3891C72.0529 15.0549 71.991 14.7212 71.9272 14.3876C71.317 11.1887 70.6626 8.03674 70.5316 4.77763C70.5026 4.0579 71.1673 3.89724 71.7458 4.04843C72.507 4.24729 73.1356 4.87574 73.4234 5.59401C74.7154 8.82047 75.6023 12.1274 76.5002 15.4813C77.3761 18.7528 78.362 22.0082 79.1596 25.2977C79.3738 26.1811 79.3035 27.1034 78.2727 27.3769C77.1781 27.6677 76.0236 26.9972 75.2012 26.3416C74.4453 25.7391 73.5542 25.1447 72.4411 24.5705C71.7718 24.2254 70.4629 23.7001 69.5207 23.3815ZM21.0147 17.4326C20.9242 17.5089 21.0383 17.4969 21.1037 17.4758C20.9299 17.3053 20.8884 17.5389 21.0147 17.4326ZM24.4777 13.2522C24.4429 12.6157 24.285 11.9955 24.0453 11.4066C23.0743 12.147 22.1952 13.0252 21.6138 14.087C21.2924 14.674 21.0679 15.3609 21.0325 16.0287C21.0173 16.3129 21.0306 16.6397 21.0824 16.9082C21.1394 17.203 21.1749 17.3133 21.231 17.4347C21.7551 17.3919 22.2635 17.2376 22.7514 16.9009C23.9322 16.0855 24.5545 14.6594 24.4777 13.2522Z" fill="#231F20"/>
</svg>
